<svg version="1.1" viewBox="0.0 0.0 960.0 540.0" fill="none" stroke="none" stroke-linecap="square" stroke-miterlimit="10" xmlns:xlink="http://www.w3.org/1999/xlink" xmlns="http://www.w3.org/2000/svg"><clipPath id="p.0"><path d="m0 0l960.0 0l0 540.0l-960.0 0l0 -540.0z" clip-rule="nonzero"/></clipPath><g clip-path="url(#p.0)"><path fill="#ffffff" d="m0 0l960.0 0l0 540.0l-960.0 0z" fill-rule="evenodd"/><path fill="#eeeeee" d="m138.64961 152.9029l53.826767 0l0 333.10236l-53.826767 0z" fill-rule="evenodd"/><path stroke="#595959" stroke-width="1.0" stroke-linejoin="round" stroke-linecap="butt" d="m138.64961 152.9029l53.826767 0l0 333.10236l-53.826767 0z" fill-rule="evenodd"/><path fill="#eeeeee" d="m248.72835 159.90814l53.826767 0l0 333.10236l-53.826767 0z" fill-rule="evenodd"/><path stroke="#595959" stroke-width="1.0" stroke-linejoin="round" stroke-linecap="butt" d="m248.72835 159.90814l53.826767 0l0 333.10236l-53.826767 0z" fill-rule="evenodd"/><path fill="#000000" fill-opacity="0.0" d="m148.32822 115.9539l95.68504 -75.968506l21.70079 27.338577l-95.68504 75.968506z" fill-rule="evenodd"/><path fill="#000000" d="m175.52766 128.73189l-6.8972015 -8.689072l-3.095993 2.458046l-1.4085846 -1.7745285l8.309021 -6.5968933l1.4085846 1.7745285l-3.095993 2.458046l6.8972015 8.689072l-2.117035 1.6808014zm3.0091248 -8.733429q-0.7965698 -1.0035248 -1.0453796 -2.3222504q-0.25852966 -1.3309555 0.25845337 -2.5394363q0.5169678 -1.2084808 1.6305542 -2.092598q1.7131958 -1.3601837 3.6985474 -1.1209183q1.9853516 0.23926544 3.3453674 1.9525986q1.3600006 1.7133408 1.1498566 3.7356033q-0.21984863 2.0100327 -1.896347 3.3410645q-1.0401459 0.82582855 -2.3638 1.1185989q-1.3211212 0.270813 -2.5294647 -0.2461853q-1.2180634 -0.52923584 -2.2477875 -1.826477zm2.1335602 -1.534317q0.9034271 1.1381454 1.9056396 1.3200455q1.004715 0.15994263 1.7878876 -0.46185303q0.78318787 -0.6218033 0.8430939 -1.6269989q0.062423706 -1.0271606 -0.85072327 -2.1775436q-0.8840027 -1.1136703 -1.8984375 -1.2858505q-1.0022125 -0.18190002 -1.7853851 0.43990326q-0.7831726 0.62179565 -0.8456116 1.6489487q-0.050186157 1.0174408 0.8435364 2.1433487zm10.272278 -1.9708633l-8.305786 -10.463593l2.0068817 -1.5933609l4.410324 5.5561066l0.23181152 -4.5333023l2.4596558 -1.9528351l-0.38658142 4.8158035l6.5833282 2.613861l-2.1537323 1.7099457l-4.6095886 -1.8865662l-0.15287781 1.7174377l1.9234467 2.423149l-2.0068817 1.5933533zm10.666611 -12.398994l2.2569427 -1.253212q0.49493408 1.4026184 0.119384766 2.638466q-0.37554932 1.2358551 -1.6237335 2.2268448q-1.9701843 1.5642166 -3.9544067 1.0247879q-1.5624695 -0.4353485 -2.8156128 -2.0140686q-1.4960175 -1.8846741 -1.3621979 -3.7266388q0.14605713 -1.851677 1.6512299 -3.0466995q1.6887207 -1.3407516 3.5516968 -1.0043259q1.8629913 0.33641815 3.650055 2.6882858l-5.017227 3.9833984q0.73361206 0.8739548 1.5846863 1.0162354q0.85357666 0.12033081 1.5511017 -0.43345642q0.4650116 -0.36919403 0.57917786 -0.87879944q0.12638855 -0.5193176 -0.1710968 -1.2208176zm-1.4902191 -2.128685q-0.7141876 -0.84947205 -1.5019226 -0.9622345q-0.787735 -0.11277008 -1.3995819 0.37300873q-0.6608124 0.52464294 -0.71025085 1.34198q-0.049438477 0.8173294 0.6136627 1.6275711l2.9980927 -2.3803253zm14.0385895 -3.9037018l-2.006897 1.5933533l-3.0697327 -3.8672485q-0.97143555 -1.2238083 -1.3877563 -1.4718399q-0.4138031 -0.269989 -0.8629303 -0.23262787q-0.44659424 0.015411377 -0.8504181 0.33602905q-0.52619934 0.4177704 -0.7091217 1.0418167q-0.19262695 0.61180115 0.027145386 1.2153931q0.2223053 0.5816345 1.2325897 1.8544006l2.7200317 3.426674l-1.9946594 1.5836487l-6.013199 -7.5754013l1.8600464 -1.4767761l0.88401794 1.1136703q-0.028808594 -2.071968 1.4763641 -3.266983q0.6608124 -0.52464294 1.4057617 -0.71707916q0.73524475 -0.2046814 1.3178406 -0.04875946q0.57289124 0.14368439 1.0618896 0.5335312q0.47927856 0.37760925 1.1689911 1.2465134l3.740036 4.711685zm-4.79364 -10.219528l-1.4765778 -1.8601913l2.0068817 -1.5933609l1.476593 1.860199l-2.006897 1.5933533zm6.8292084 8.603409l-6.013199 -7.5754013l2.006897 -1.5933609l6.0131836 7.5754013l-2.0068817 1.5933609zm3.2517853 -2.5817413l-1.2434387 -1.5664825l0.25500488 -5.5093613q0.06607056 -1.349266 0.1244812 -1.9542542q-0.32321167 0.2965088 -0.88864136 0.76538086l-2.6579895 2.1302414l-1.3211517 -1.6643829l6.253174 -4.964676l1.1268768 1.4196243l-0.23594666 5.6338882l-0.15362549 1.9175415q0.8054962 -0.71932983 1.001297 -0.87477875l3.1082306 -2.4677582l1.39888 1.762291l-6.767151 5.3727264zm10.580399 -12.3305435l2.2569427 -1.253212q0.49493408 1.4026184 0.119384766 2.638466q-0.37554932 1.2358551 -1.6237335 2.2268448q-1.9701843 1.5642166 -3.9544067 1.0247879q-1.5624695 -0.4353485 -2.815628 -2.0140686q-1.4960022 -1.8846741 -1.3621826 -3.7266388q0.14605713 -1.851677 1.6512299 -3.0466995q1.6887207 -1.3407516 3.5516968 -1.0043259q1.8629913 0.33641815 3.650055 2.6882858l-5.017227 3.9833984q0.73361206 0.87394714 1.5846863 1.0162354q0.85357666 0.12033081 1.5511017 -0.43345642q0.4650116 -0.36919403 0.57917786 -0.87879944q0.12638855 -0.5193176 -0.1710968 -1.2208176zm-1.4902191 -2.128685q-0.7141876 -0.84947205 -1.5019226 -0.9622421q-0.787735 -0.11276245 -1.3995819 0.37301636q-0.6608124 0.52464294 -0.71025085 1.34198q-0.049438477 0.8173294 0.6136627 1.6275711l2.9980927 -2.3803253zm9.0703125 0.04082489l-2.006897 1.5933609l-6.0131836 -7.5754013l1.8600311 -1.4767685l0.85487366 1.0769577q-0.13476562 -1.14991 0.060012817 -1.6836243q0.18507385 -0.5459442 0.67456055 -0.9345703q0.6852722 -0.5440674 1.622757 -0.669899l0.7650604 2.2455444q-0.76400757 0.06790924 -1.2045593 0.4176712q-0.4160614 0.3303299 -0.525177 0.79603577q-0.1091156 0.46569824 0.20527649 1.213623q0.31692505 0.7259674 1.8517914 2.6595917l1.8554535 2.3374786z" fill-rule="nonzero"/><path fill="#000000" fill-opacity="0.0" d="m252.57756 122.95915l95.68504 -75.968506l21.700775 27.338585l-95.68503 75.9685z" fill-rule="evenodd"/><path fill="#000000" d="m277.4275 137.60252l-8.305786 -10.463593l7.7583313 -6.159691l1.4085999 1.7745285l-5.6535645 4.4886017l1.8359985 2.3130035l5.2619934 -4.177704l1.3988647 1.762291l-5.261963 4.1777115l2.2634277 2.8514862l5.849365 -4.644058l1.3988647 1.7622833l-7.954132 6.31514zm3.5610046 -15.176773l1.8478088 -1.4670563l0.8160095 1.0279999q0.03918457 -1.9862976 1.4097595 -3.07444q0.7342224 -0.58293915 1.5032654 -0.69475555q0.77160645 -0.1337738 1.5902405 0.19385529q0.025726318 -0.9980011 0.3677063 -1.748352q0.34454346 -0.7723007 0.993103 -1.2872314q0.8321228 -0.6606598 1.6792603 -0.7746277q0.8496704 -0.13591766 1.6557007 0.30148315q0.59661865 0.3243637 1.451477 1.4013138l3.8468933 4.846298l-2.006897 1.5933609l-3.4388733 -4.3322983q-0.8937378 -1.1259079 -1.3640442 -1.2911682q-0.6092224 -0.21459198 -1.1965942 0.25175476q-0.41607666 0.3303299 -0.59143066 0.88851166q-0.16311646 0.54846954 0.07611084 1.1765366q0.22949219 0.61582947 1.0843506 1.6927872l2.8851624 3.6347198l-2.006897 1.5933609l-3.2931519 -4.1487274q-0.8840332 -1.1136703 -1.2467346 -1.3444214q-0.36270142 -0.23075104 -0.70925903 -0.21496582q-0.34655762 0.015785217 -0.73812866 0.32668304q-0.46502686 0.36919403 -0.6281433 0.9176636q-0.17282104 0.536232 0.034729004 1.1495361q0.21005249 0.59135437 1.074646 1.680542l2.9240112 3.6836777l-2.006897 1.5933533l-6.0131836 -7.5753937zm19.078278 -2.7975311l-8.305786 -10.4636l2.0068665 -1.5933533l2.992035 3.7693405q0.08236694 -1.7811508 1.355011 -2.7915726q1.3828125 -1.0978622 3.0849304 -0.81329346q1.7021179 0.28457642 3.1884155 2.1570053q1.5445862 1.9458618 1.4500122 3.7367325q-0.09207153 1.7689056 -1.4136963 2.8181915q-0.6485596 0.5149307 -1.5374451 0.7019501q-0.88638306 0.16506195 -1.8443298 -0.111839294l0.8840332 1.1136703l-1.8600464 1.4767685zm-1.1553345 -5.52684q0.93258667 1.1748581 1.7587891 1.4366302q1.1551208 0.3996582 2.0239563 -0.29014587q0.6607971 -0.52464294 0.6789551 -1.4567947q0.008422852 -0.9443817 -0.9630127 -2.16819q-1.0297241 -1.2972488 -1.9635315 -1.4935303q-0.92160034 -0.20600128 -1.6558228 0.37693787q-0.72198486 0.5732193 -0.7523804 1.5150833q-0.030395508 0.941864 0.8730469 2.0800095zm12.633209 -7.516266l2.256958 -1.253212q0.49493408 1.4026108 0.119384766 2.638466q-0.37554932 1.2358551 -1.6237488 2.2268448q-1.9701538 1.564209 -3.9543762 1.0247879q-1.5624695 -0.43535614 -2.8156433 -2.0140686q-1.4960022 -1.8846741 -1.3621826 -3.7266388q0.14605713 -1.8516846 1.6512146 -3.0466995q1.6887512 -1.3407516 3.5517273 -1.0043335q1.8629761 0.33642578 3.6500244 2.6882935l-5.017212 3.9833908q0.73361206 0.8739548 1.5846863 1.016243q0.85357666 0.12033081 1.5510864 -0.43345642q0.46502686 -0.36919403 0.5791931 -0.87879944q0.12640381 -0.51932526 -0.17111206 -1.2208176zm-1.4902039 -2.128685q-0.7142029 -0.8494797 -1.5019226 -0.9622421q-0.7877197 -0.11276245 -1.3995972 0.37301636q-0.6607971 0.52464294 -0.7102356 1.3419724q-0.049438477 0.81733704 0.61364746 1.6275711l2.998108 -2.3803177zm14.099762 -3.9522858l-1.8722839 1.4864883l-0.8840027 -1.1136703q0.049865723 1.0178146 -0.33389282 1.841217q-0.371521 0.81368256 -1.0078735 1.3188934q-1.3093567 1.0395737 -3.074829 0.7254791q-1.7654419 -0.31409454 -3.2614746 -2.1987686q-1.5251465 -1.9213791 -1.4161682 -3.6438599q0.10897827 -1.7224808 1.4917603 -2.8203506q1.2726746 -1.0104218 3.0381165 -0.6963272l-2.9920044 -3.7693405l2.0068665 -1.5933609l8.305786 10.4636zm-8.497589 0.30252075q0.96170044 1.2115707 1.731781 1.4780121q1.1086731 0.41657257 1.9775085 -0.27323914q0.6975403 -0.55378723 0.7084961 -1.5201263q0.0134887695 -0.9882889 -0.9093933 -2.150917q-1.0394287 -1.3094788 -1.9732666 -1.5057602q-0.9215698 -0.20600128 -1.6557922 0.37693787q-0.70977783 0.5635071 -0.7426758 1.5273209q-0.030395508 0.941864 0.8633423 2.067772zm17.422668 -7.388527l-1.8722839 1.4864883l-0.8840027 -1.1136703q0.049865723 1.0178146 -0.33389282 1.841217q-0.371521 0.8136902 -1.0078735 1.3189011q-1.3093567 1.039566 -3.074829 0.7254715q-1.7654419 -0.31409454 -3.2614746 -2.198761q-1.5251465 -1.9213867 -1.4161682 -3.6438675q0.108947754 -1.7224808 1.4917603 -2.820343q1.2726746 -1.0104218 3.0381165 -0.6963272l-2.992035 -3.7693481l2.006897 -1.5933533l8.305786 10.463593zm-8.497589 0.30252075q0.96170044 1.2115707 1.731781 1.4780121q1.1086731 0.41657257 1.9775085 -0.2732315q0.6975403 -0.55379486 0.7084961 -1.520134q0.013458252 -0.9882889 -0.9093933 -2.1509094q-1.0394287 -1.3094788 -1.9732666 -1.5057678q-0.9215698 -0.20599365 -1.6558228 0.37693787q-0.7097473 0.5635071 -0.74264526 1.5273209q-0.030395508 0.941864 0.8633423 2.067772zm3.6427612 -10.473465l-1.4765625 -1.8601913l2.0068665 -1.5933609l1.476593 1.860199l-2.006897 1.5933533zm6.829193 8.603401l-6.0131836 -7.5753937l2.006897 -1.5933609l6.0131836 7.5754013l-2.006897 1.5933533zm10.948975 -8.692848l-2.006897 1.5933533l-3.0697327 -3.8672485q-0.97143555 -1.2238083 -1.3877563 -1.4718399q-0.41381836 -0.269989 -0.86294556 -0.23262787q-0.44659424 0.015411377 -0.85040283 0.33602905q-0.5262146 0.4177704 -0.70913696 1.0418167q-0.19262695 0.61180115 0.027160645 1.2153931q0.22229004 0.5816345 1.232605 1.8544006l2.7200012 3.426674l-1.9946594 1.5836487l-6.0131836 -7.5754013l1.8600464 -1.4767761l0.8840027 1.1136703q-0.028778076 -2.0719604 1.4763794 -3.266983q0.6607971 -0.52464294 1.4057617 -0.71707916q0.73526 -0.2046814 1.3178406 -0.04875946q0.572876 0.14368439 1.0618896 0.5335312q0.47927856 0.37760925 1.1690063 1.246521l3.7400208 4.7116776zm2.2503052 -0.9686279l2.5117493 -1.5353394q0.35983276 0.35276031 0.6844177 0.33444977q0.4685669 -0.012886047 1.0804138 -0.49866486q0.7831726 -0.6218033 0.99020386 -1.1652222q0.13067627 -0.36312103 -0.004180908 -0.8346176q-0.10864258 -0.31277466 -0.6429138 -0.98587036l-0.8742981 -1.1014328q0.078125 1.9330521 -1.29245 3.021202q-1.5296326 1.214447 -3.4526672 0.6264496q-1.5038147 -0.4619751 -2.7084045 -1.9795074q-1.5154419 -1.9091415 -1.3942261 -3.6413422q0.12121582 -1.732193 1.4795532 -2.8106308q1.4072571 -1.1172943 3.3061829 -0.60990906l-0.8451538 -1.0647202l1.8722839 -1.4864883l5.3914795 6.7921677q1.068573 1.3461914 1.3728943 2.1819305q0.3043213 0.83573914 0.20162964 1.5357361q-0.0904541 0.6902771 -0.59835815 1.4326859q-0.4859314 0.74492645 -1.513855 1.5610428q-1.9212341 1.5253448 -3.2534485 1.5057144q-1.3322449 -0.019622803 -2.1288147 -1.0231552q-0.08743286 -0.11013794 -0.18203735 -0.25447845zm-1.7397156 -5.860916q0.95202637 1.1993408 1.8638916 1.3930969q0.91186523 0.19376373 1.5971375 -0.35031128q0.7342529 -0.58293915 0.7793884 -1.5564651q0.057373047 -0.98324585 -0.8363342 -2.1091537q-0.94229126 -1.1871033 -1.8786316 -1.3614273q-0.9338379 -0.19628906 -1.6802979 0.3963623q-0.72198486 0.5732193 -0.7401428 1.5053711q-0.018157959 0.93214417 0.894989 2.0825272z" fill-rule="nonzero"/><path fill="#eeeeee" d="m430.54724 243.18373l53.826782 0l0 166.55116l-53.826782 0z" fill-rule="evenodd"/><path stroke="#595959" stroke-width="1.0" stroke-linejoin="round" stroke-linecap="butt" d="m430.54724 243.18373l53.826782 0l0 166.55116l-53.826782 0z" fill-rule="evenodd"/><path fill="#eeeeee" d="m542.0748 245.38321l53.82672 0l0 166.55118l-53.82672 0z" fill-rule="evenodd"/><path stroke="#595959" stroke-width="1.0" stroke-linejoin="round" stroke-linecap="butt" d="m542.0748 245.38321l53.82672 0l0 166.55118l-53.82672 0z" fill-rule="evenodd"/><path fill="#000000" fill-opacity="0.0" d="m192.47638 319.45407l56.25197 0.5354309" fill-rule="evenodd"/><path stroke="#595959" stroke-width="4.0" stroke-linejoin="round" stroke-linecap="butt" d="m192.47638 319.45407l32.25305 0.30700684" fill-rule="evenodd"/><path fill="#595959" stroke="#595959" stroke-width="4.0" stroke-linecap="butt" d="m224.66655 326.3677l18.214447 -6.4338684l-18.088684 -6.7793884z" fill-rule="evenodd"/><path fill="#ffe599" d="m302.56824 164.09448l126.519684 81.4559l0 162.91498l-126.519684 81.4559z" fill-rule="evenodd"/><path stroke="#595959" stroke-width="1.0" stroke-linejoin="round" stroke-linecap="butt" d="m302.56824 164.09448l126.519684 81.4559l0 162.91498l-126.519684 81.4559z" fill-rule="evenodd"/><path fill="#ffe599" d="m594.249 245.7454l121.3858 31.715683l0 102.395386l-121.3858 31.715698z" fill-rule="evenodd"/><path stroke="#595959" stroke-width="1.0" stroke-linejoin="round" stroke-linecap="butt" d="m594.249 245.7454l121.3858 31.715683l0 102.395386l-121.3858 31.715698z" fill-rule="evenodd"/><path fill="#000000" fill-opacity="0.0" d="m438.75867 215.84628l95.68506 -75.968506l21.700745 27.338593l-95.68503 75.968506z" fill-rule="evenodd"/><path fill="#000000" d="m463.66977 230.44109l-8.237793 -10.37793l2.1047974 -1.6710815l6.8388977 8.615646l5.249756 -4.1679993l1.3988647 1.7622833l-7.3545227 5.839081zm5.6248474 -10.012131l1.9004211 -1.8280334q0.99957275 0.8822632 1.9510498 0.924881q0.95401 0.020645142 1.9207458 -0.7468872q1.015686 -0.8063965 1.1896362 -1.6427765q0.18618774 -0.8461151 -0.27038574 -1.4213104q-0.30114746 -0.37937927 -0.72540283 -0.46150208q-0.4242859 -0.082107544 -1.1181335 0.14956665q-0.47650146 0.17880249 -2.0603943 0.8976593q-2.0287476 0.91241455 -3.1997375 0.844574q-1.646759 -0.08912659 -2.6376038 -1.3374176q-0.6314392 -0.7954712 -0.73239136 -1.8525238q-0.10095215 -1.0570526 0.46170044 -2.0823364q0.56518555 -1.0472412 1.7766418 -2.009079q1.9701843 -1.564209 3.651123 -1.4822693q1.6834412 0.0599823 2.8786926 1.4652252l-2.0490112 1.7664642q-0.77575684 -0.70085144 -1.5005493 -0.68403625q-0.7222595 -0.005142212 -1.6155701 0.70410156q-0.91778564 0.7286682 -1.1525574 1.5135803q-0.1361084 0.5070801 0.19418335 0.923172q0.29144287 0.36715698 0.81359863 0.3715515q0.66360474 0.0317688 2.4969177 -0.82525635q1.8235779 -0.8692627 2.8686829 -1.0605774q1.057312 -0.20103455 2.00766 0.14173889q0.9503479 0.34275818 1.7372131 1.3340454q0.7188721 0.9056244 0.8388672 2.087204q0.11999512 1.1815796 -0.49664307 2.289627q-0.60440063 1.0983429 -1.962738 2.176773q-1.9823914 1.5739288 -3.7756042 1.5013275q-1.7932129 -0.07260132 -3.3904114 -1.657486zm15.334106 -6.6280823l-6.897217 -8.689072l-3.0960083 2.4580536l-1.4085693 -1.7745361l8.309021 -6.5968933l1.4085693 1.7745361l-3.0959778 2.4580383l6.8971863 8.689072l-2.1170044 1.6808014zm6.551056 -5.201172l-8.305786 -10.463608l3.157196 -2.5066223l7.560211 5.6289062l-3.7911682 -8.621307l3.169403 -2.5163422l8.305786 10.463593l-1.9579468 1.5545044l-6.5377502 -8.236267l4.457428 9.887924l-2.0313416 1.6127777l-8.6058655 -6.5943146l6.537781 8.236252l-1.9579468 1.5545044z" fill-rule="nonzero"/><path fill="#000000" fill-opacity="0.0" d="m542.07495 218.04576l95.68506 -75.968506l21.700745 27.338593l-95.685 75.96849z" fill-rule="evenodd"/><path fill="#000000" d="m558.6068 222.23526l3.8669434 -3.0701294q1.2971802 -1.0298615 2.147583 -1.3658752q1.1437378 -0.46914673 2.3460083 -0.28649902q1.204834 0.16069031 2.3440552 0.8921814q1.1392212 0.7314911 2.3049316 2.200058q1.0200195 1.2850037 1.4498291 2.47995q0.5118408 1.4490356 0.34106445 2.7417908q-0.13293457 0.96343994 -0.8201294 2.007782q-0.52264404 0.7740631 -1.6973877 1.7067719l-3.9771118 3.1575623l-8.305786 -10.463593zm3.5256348 0.09373474l5.498352 6.926773l1.5785522 -1.2533112q0.8811035 -0.6995239 1.1949463 -1.1083221q0.4071045 -0.54267883 0.49468994 -1.1109619q0.099731445 -0.5779877 -0.24591064 -1.4407196q-0.34320068 -0.88468933 -1.3049316 -2.0962677q-0.96173096 -1.2115784 -1.6968384 -1.685318q-0.7229004 -0.48345947 -1.3961792 -0.5274658q-0.67077637 -0.06594849 -1.3650513 0.2657776q-0.5182495 0.25186157 -1.8153687 1.2817078l-0.94226074 0.7481079zm17.799072 -3.896698l2.256897 -1.2532043q0.49493408 1.4026184 0.119384766 2.6384735q-0.37554932 1.2358398 -1.6237183 2.2268372q-1.9701538 1.564209 -3.9544067 1.0247803q-1.562439 -0.4353485 -2.8156128 -2.0140686q-1.4960327 -1.8846588 -1.3621826 -3.7266235q0.14605713 -1.8516846 1.6511841 -3.0467072q1.6887817 -1.3407593 3.5517578 -1.0043335q1.8629761 0.33642578 3.6500244 2.6882935l-5.017212 3.9833984q0.73358154 0.87394714 1.5846558 1.0162354q0.85357666 0.12033081 1.5510864 -0.43345642q0.46502686 -0.36920166 0.57922363 -0.87879944q0.12640381 -0.5193176 -0.17108154 -1.2208252zm-1.4902344 -2.1286774q-0.71417236 -0.84947205 -1.5019531 -0.9622345q-0.7877197 -0.11277771 -1.3995972 0.37301636q-0.6607666 0.5246277 -0.7102051 1.3419647q-0.049438477 0.81733704 0.61364746 1.6275787l2.998108 -2.3803253zm14.038574 -3.9037018l-2.006897 1.5933533l-3.0697021 -3.8672485q-0.9714966 -1.2238159 -1.3878174 -1.4718475q-0.41375732 -0.269989 -0.86291504 -0.23262024q-0.44659424 0.015411377 -0.85040283 0.33602905q-0.5261841 0.4177704 -0.70910645 1.0418091q-0.19262695 0.6118164 0.027160645 1.2153931q0.22229004 0.5816345 1.232544 1.8544006l2.7200317 3.4266815l-1.9946289 1.5836487l-6.0131836 -7.575409l1.8600464 -1.4767609l0.88397217 1.1136627q-0.028808594 -2.0719604 1.4763794 -3.266983q0.66082764 -0.52464294 1.4057617 -0.7170868q0.7352295 -0.2046814 1.3178711 -0.04875183q0.572876 0.14367676 1.0618286 0.53352356q0.47930908 0.37760925 1.1690063 1.246521l3.7400513 4.711685zm-0.39361572 -3.2187653l1.7640381 -1.8993225q0.6008911 0.4805603 1.2353516 0.47561646q0.6343994 -0.0049438477 1.3441772 -0.5684509q0.77093506 -0.6120758 0.9293823 -1.2166901q0.11376953 -0.40956116 -0.14849854 -0.73999023q-0.18457031 -0.23251343 -0.44799805 -0.26278687q-0.26342773 -0.030273438 -0.8867798 0.26512146q-2.8503418 1.3852081 -3.8486328 1.4595642q-1.3790283 0.09732056 -2.2436523 -0.99186707q-0.78686523 -0.99128723 -0.5404663 -2.2642212q0.24890137 -1.2949066 1.8764038 -2.587082q1.5541382 -1.2338715 2.7208252 -1.3222504q1.1569824 -0.1006012 2.2253418 0.6672363l-1.6125488 1.8388672q-0.4720459 -0.3434143 -0.9992676 -0.3039093q-0.51501465 0.029800415 -1.1513062 0.5350189q-0.7832031 0.62179565 -0.95098877 1.1141205q-0.10620117 0.34368896 0.08807373 0.5884552q0.16516113 0.20803833 0.48724365 0.21168518q0.42462158 -0.017929077 2.3191528 -0.92352295q1.8847656 -0.9178467 2.9485474 -0.8845825q1.0418091 0.03074646 1.7994995 0.98532104q0.8354492 1.052475 0.5592041 2.4888153q-0.27630615 1.4363251 -1.9772339 2.7868042q-1.5541382 1.2338715 -2.9551392 1.3286896q-1.3984375 0.07284546 -2.534729 -0.78063965zm13.0224 -10.738068l2.256897 -1.2532043q0.49493408 1.4026184 0.119384766 2.6384583q-0.37554932 1.2358551 -1.6237183 2.2268524q-1.9701538 1.564209 -3.9544067 1.0247803q-1.562439 -0.4353485 -2.8156128 -2.0140686q-1.4960327 -1.8846741 -1.3621826 -3.7266388q0.14605713 -1.8516693 1.6512451 -3.046692q1.6887207 -1.3407593 3.5516968 -1.0043335q1.8629761 0.33642578 3.6500244 2.6882935l-5.017212 3.9833984q0.73358154 0.87394714 1.5846558 1.0162354q0.85357666 0.12033081 1.5510864 -0.43345642q0.46502686 -0.36920166 0.57922363 -0.87879944q0.12640381 -0.5193176 -0.17108154 -1.2208252zm-1.4902344 -2.1286774q-0.71417236 -0.84947205 -1.5019531 -0.9622345q-0.7877197 -0.11277771 -1.3995972 0.3730011q-0.6607666 0.52464294 -0.7102051 1.34198q-0.049438477 0.81733704 0.61364746 1.6275787l2.998108 -2.3803253z" fill-rule="nonzero"/><path fill="#000000" fill-opacity="0.0" d="m314.4475 307.2756l149.29132 0l0 39.46454l-149.29132 0z" fill-rule="evenodd"/><path fill="#000000" d="m330.40063 334.1956l-1.640625 0l0 -10.453125q-0.59375 0.5625 -1.5625 1.140625q-0.953125 0.5625 -1.71875 0.84375l0 -1.59375q1.375 -0.640625 2.40625 -1.5625q1.03125 -0.921875 1.453125 -1.78125l1.0625 0l0 13.40625zm4.203827 -3.5l1.71875 -0.140625q0.1875 1.25 0.875 1.890625q0.703125 0.625 1.6875 0.625q1.1875 0 2.0 -0.890625q0.828125 -0.890625 0.828125 -2.359375q0 -1.40625 -0.796875 -2.21875q-0.78125 -0.8125 -2.0625 -0.8125q-0.78125 0 -1.421875 0.359375q-0.640625 0.359375 -1.0 0.9375l-1.546875 -0.203125l1.296875 -6.859375l6.640625 0l0 1.5625l-5.328125 0l-0.71875 3.59375q1.203125 -0.84375 2.515625 -0.84375q1.75 0 2.953125 1.21875q1.203125 1.203125 1.203125 3.109375q0 1.8125 -1.046875 3.140625q-1.296875 1.625 -3.515625 1.625q-1.8125 0 -2.96875 -1.015625q-1.15625 -1.03125 -1.3125 -2.71875zm10.828857 3.5l0 -13.359375l1.640625 0l0 7.625l3.890625 -3.9375l2.109375 0l-3.6875 3.59375l4.0625 6.078125l-2.015625 0l-3.203125 -4.953125l-1.15625 1.125l0 3.828125l-1.640625 0zm13.870789 -4.015625l0 -1.640625l5.03125 0l0 1.640625l-5.03125 0zm15.478302 -1.828125l-8.84375 3.78125l0 -1.625l7.015625 -2.90625l-7.015625 -2.875l0 -1.640625l8.84375 3.734375l0 1.53125zm13.172028 5.84375l-1.640625 0l0 -10.453125q-0.59375 0.5625 -1.5625 1.140625q-0.953125 0.5625 -1.71875 0.84375l0 -1.59375q1.375 -0.640625 2.40625 -1.5625q1.03125 -0.921875 1.453125 -1.78125l1.0625 0l0 13.40625zm12.813202 -1.578125l0 1.578125l-8.828125 0q-0.015625 -0.59375 0.1875 -1.140625q0.34375 -0.90625 1.078125 -1.78125q0.75 -0.875 2.15625 -2.015625q2.171875 -1.78125 2.9375 -2.828125q0.765625 -1.046875 0.765625 -1.96875q0 -0.984375 -0.703125 -1.640625q-0.6875 -0.671875 -1.8125 -0.671875q-1.1875 0 -1.90625 0.71875q-0.703125 0.703125 -0.703125 1.953125l-1.6875 -0.171875q0.171875 -1.890625 1.296875 -2.875q1.140625 -0.984375 3.03125 -0.984375q1.921875 0 3.046875 1.0625q1.125 1.0625 1.125 2.640625q0 0.796875 -0.328125 1.578125q-0.328125 0.78125 -1.09375 1.640625q-0.75 0.84375 -2.53125 2.34375q-1.46875 1.234375 -1.890625 1.6875q-0.421875 0.4375 -0.6875 0.875l6.546875 0zm4.2819824 -5.65625q-1.015625 -0.375 -1.515625 -1.0625q-0.484375 -0.703125 -0.484375 -1.671875q0 -1.453125 1.046875 -2.4375q1.046875 -1.0 2.78125 -1.0q1.75 0 2.8125 1.015625q1.078125 1.015625 1.078125 2.46875q0 0.9375 -0.5 1.625q-0.484375 0.6875 -1.46875 1.0625q1.21875 0.390625 1.859375 1.28125q0.65625 0.890625 0.65625 2.140625q0 1.703125 -1.21875 2.875q-1.21875 1.171875 -3.1875 1.171875q-1.984375 0 -3.203125 -1.171875q-1.203125 -1.171875 -1.203125 -2.921875q0 -1.3125 0.65625 -2.1875q0.671875 -0.875 1.890625 -1.1875zm-0.328125 -2.78125q0 0.9375 0.609375 1.546875q0.609375 0.59375 1.59375 0.59375q0.9375 0 1.546875 -0.59375q0.609375 -0.59375 0.609375 -1.453125q0 -0.90625 -0.625 -1.515625q-0.625 -0.625 -1.5625 -0.625q-0.9375 0 -1.5625 0.609375q-0.609375 0.59375 -0.609375 1.4375zm-0.53125 6.15625q0 0.703125 0.328125 1.359375q0.34375 0.65625 1.0 1.015625q0.65625 0.359375 1.40625 0.359375q1.171875 0 1.9375 -0.75q0.765625 -0.75 0.765625 -1.921875q0 -1.1875 -0.796875 -1.953125q-0.78125 -0.78125 -1.953125 -0.78125q-1.15625 0 -1.921875 0.765625q-0.765625 0.765625 -0.765625 1.90625z" fill-rule="nonzero"/><path fill="#000000" fill-opacity="0.0" d="m613.2218 308.9265l149.29132 0l0 39.46457l-149.29132 0z" fill-rule="evenodd"/><path fill="#000000" d="m629.1749 335.8465l-1.640625 0l0 -10.453125q-0.59375 0.5625 -1.5625 1.140625q-0.953125 0.5625 -1.71875 0.84375l0 -1.59375q1.375 -0.640625 2.40625 -1.5625q1.03125 -0.921875 1.453125 -1.78125l1.0625 0l0 13.40625zm12.813171 -1.578125l0 1.578125l-8.828125 0q-0.015625 -0.59375 0.1875 -1.140625q0.34375 -0.90625 1.078125 -1.78125q0.75 -0.875 2.15625 -2.015625q2.171875 -1.78125 2.9375 -2.828125q0.765625 -1.046875 0.765625 -1.96875q0 -0.984375 -0.703125 -1.640625q-0.6875 -0.671875 -1.8125 -0.671875q-1.1875 0 -1.90625 0.71875q-0.703125 0.703125 -0.703125 1.953125l-1.6875 -0.171875q0.171875 -1.890625 1.296875 -2.875q1.140625 -0.984375 3.03125 -0.984375q1.921875 0 3.046875 1.0625q1.125 1.0625 1.125 2.640625q0 0.796875 -0.328125 1.578125q-0.328125 0.78125 -1.09375 1.640625q-0.75 0.84375 -2.53125 2.34375q-1.46875 1.234375 -1.890625 1.6875q-0.421875 0.4375 -0.6875 0.875l6.546875 0zm4.2819824 -5.65625q-1.015625 -0.375 -1.515625 -1.0625q-0.484375 -0.703125 -0.484375 -1.671875q0 -1.453125 1.046875 -2.4375q1.046875 -1.0 2.78125 -1.0q1.75 0 2.8125 1.015625q1.078125 1.015625 1.078125 2.46875q0 0.9375 -0.5 1.625q-0.484375 0.6875 -1.46875 1.0625q1.21875 0.390625 1.859375 1.28125q0.65625 0.890625 0.65625 2.140625q0 1.703125 -1.21875 2.875q-1.21875 1.171875 -3.1875 1.171875q-1.984375 0 -3.203125 -1.171875q-1.203125 -1.171875 -1.203125 -2.921875q0 -1.3125 0.65625 -2.1875q0.671875 -0.875 1.890625 -1.1875zm-0.328125 -2.78125q0 0.9375 0.609375 1.546875q0.609375 0.59375 1.59375 0.59375q0.9375 0 1.546875 -0.59375q0.609375 -0.59375 0.609375 -1.453125q0 -0.90625 -0.625 -1.515625q-0.625 -0.625 -1.5625 -0.625q-0.9375 0 -1.5625 0.609375q-0.609375 0.59375 -0.609375 1.4375zm-0.53125 6.15625q0 0.703125 0.328125 1.359375q0.34375 0.65625 1.0 1.015625q0.65625 0.359375 1.40625 0.359375q1.171875 0 1.9375 -0.75q0.765625 -0.75 0.765625 -1.921875q0 -1.1875 -0.796875 -1.953125q-0.78125 -0.78125 -1.953125 -0.78125q-1.15625 0 -1.921875 0.765625q-0.765625 0.765625 -0.765625 1.90625zm13.715271 -0.15625l0 -1.640625l5.03125 0l0 1.640625l-5.03125 0zm15.4783325 -1.828125l-8.84375 3.78125l0 -1.625l7.015625 -2.90625l-7.015625 -2.875l0 -1.640625l8.84375 3.734375l0 1.53125zm7.000122 2.34375l1.71875 -0.140625q0.1875 1.25 0.875 1.890625q0.703125 0.625 1.6875 0.625q1.1875 0 2.0 -0.890625q0.828125 -0.890625 0.828125 -2.359375q0 -1.40625 -0.796875 -2.21875q-0.78125 -0.8125 -2.0625 -0.8125q-0.78125 0 -1.421875 0.359375q-0.640625 0.359375 -1.0 0.9375l-1.546875 -0.203125l1.296875 -6.859375l6.640625 0l0 1.5625l-5.328125 0l-0.71875 3.59375q1.203125 -0.84375 2.515625 -0.84375q1.75 0 2.953125 1.21875q1.203125 1.203125 1.203125 3.109375q0 1.8125 -1.046875 3.140625q-1.296875 1.625 -3.515625 1.625q-1.8125 0 -2.96875 -1.015625q-1.15625 -1.03125 -1.3125 -2.71875z" fill-rule="nonzero"/><path fill="#000000" fill-opacity="0.0" d="m484.37402 326.45932l57.700806 -2.3622131" fill-rule="evenodd"/><path stroke="#595959" stroke-width="4.0" stroke-linejoin="round" stroke-linecap="butt" d="m484.37402 326.45932l33.720886 -1.3804932" fill-rule="evenodd"/><path fill="#595959" stroke="#595959" stroke-width="4.0" stroke-linecap="butt" d="m518.3652 331.68024l17.866943 -7.343933l-18.40747 -5.8588867z" fill-rule="evenodd"/><path fill="#b6d7a8" d="m715.6352 277.77692l17.984253 0l0 103.30707l-17.984253 0z" fill-rule="evenodd"/><path stroke="#595959" stroke-width="1.0" stroke-linejoin="round" stroke-linecap="butt" d="m715.6352 277.77692l17.984253 0l0 103.30707l-17.984253 0z" fill-rule="evenodd"/></g></svg>